
        <svg xmlns="http://www.w3.org/2000/svg" xmlns:xlink="http://www.w3.org/1999/xlink" version="1.1" width="3152.8532729805725" height="869.7673629954955" viewBox="0 0 3152.8532729805725 869.7673629954955">
			
			<g transform="scale(7.642663649028622) translate(10, 10)">
				<defs id="SvgjsDefs7791"/><g id="SvgjsG7792" featureKey="symbolFeature-0" transform="matrix(1,0,0,1,-5,-3)" fill="#000"><g xmlns="http://www.w3.org/2000/svg" enable-background="new    "><g><g><path fill-rule="evenodd" clip-rule="evenodd" d="M84,45c0-13-11-24-24-24S40,33,40,33c-18-2-20,11-20,11S5,47,5,61     c0,16,18,18,18,18h27h26c9,0,19-6,19-18S84,45,84,45z M77,75H23c0,0-14-3-14-13c0-9,7-13,14-15c0,0,3-14,18-9c0,0,6-13,19-13     s21,12,21,23c0,0,10,3,10,13S80,75,77,75z"/></g></g></g><g xmlns="http://www.w3.org/2000/svg" enable-background="new    "><g><g><path fill-rule="evenodd" clip-rule="evenodd" d="M66,46c-4.478,0-8.267,2.943-9.541,7H30c-1.657,0-3,1.343-3,3s1.343,3,3,3v2.5     c0,1.381,1.119,2.5,2.5,2.5s2.5-1.119,2.5-2.5V59h3v2.5c0,1.381,1.119,2.5,2.5,2.5s2.5-1.119,2.5-2.5V59h13.459     c1.274,4.057,5.063,7,9.541,7c5.523,0,10-4.478,10-10S71.523,46,66,46z M66,61c-2.762,0-5-2.238-5-5s2.238-5,5-5s5,2.238,5,5     S68.762,61,66,61z"/></g></g></g></g><g id="SvgjsG7793" featureKey="NcgQJ4-0" transform="matrix(5.777776961464075,0,0,5.777776961464075,107.11111599623842,-38.24888833379557)" fill="#000"><path d="M9.44 18.7 c0.4 0.4 0.54 0.5 1.12 0.5 l0 0.8 l-3.94 0 l0 -0.8 c0.72 0 0.7 -0.24 0.56 -0.38 l-3.48 -3.28 l0 3.1 c0 0.46 0.3 0.56 0.64 0.56 l0 0.8 l-3.46 0 l0 -0.8 c0.38 0 0.72 -0.1 0.72 -0.56 l0 -9.9 c0 -0.46 -0.14 -0.66 -0.54 -0.66 l-0.56 0 l0 -0.82 l2.72 -0.4 c0.32 -0.04 0.48 0.08 0.48 0.38 l0 7.6 l2.92 -2.48 c0.26 -0.22 0.24 -0.54 -0.58 -0.54 l0 -0.84 c1.2 0.1 2.44 0.1 3.64 0 l0 0.84 c-0.72 0 -1.12 0.16 -1.4 0.4 l-2.86 2.48 z M19.479999999999997 14.54 c0 0.76 -0.38 1.26 -1.12 1.26 l-5.12 0 c0 1.76 1.02 3.16 2.66 3.16 c1.24 0 1.94 -0.72 2.42 -1.3 l0.76 0.78 c-0.5 0.66 -1.48 1.68 -3.48 1.68 c-2.56 0 -4.64 -1.94 -4.64 -4.7 c0 -2.92 2.14 -4.62 4.38 -4.62 c2.16 0 4.14 1.62 4.14 3.74 z M17.36 14.76 c0 -1.8 -0.64 -2.96 -2.02 -2.96 c-1.36 0 -2.1 1.16 -2.1 2.96 l4.12 0 z M29.32 18.7 c0.4 0.4 0.54 0.5 1.12 0.5 l0 0.8 l-3.94 0 l0 -0.8 c0.72 0 0.7 -0.24 0.56 -0.38 l-3.48 -3.28 l0 3.1 c0 0.46 0.3 0.56 0.64 0.56 l0 0.8 l-3.46 0 l0 -0.8 c0.38 0 0.72 -0.1 0.72 -0.56 l0 -9.9 c0 -0.46 -0.14 -0.66 -0.54 -0.66 l-0.56 0 l0 -0.82 l2.72 -0.4 c0.32 -0.04 0.48 0.08 0.48 0.38 l0 7.6 l2.92 -2.48 c0.26 -0.22 0.24 -0.54 -0.58 -0.54 l0 -0.84 c1.2 0.1 2.44 0.1 3.64 0 l0 0.84 c-0.72 0 -1.12 0.16 -1.4 0.4 l-2.86 2.48 z M39.36 14.54 c0 0.76 -0.38 1.26 -1.12 1.26 l-5.12 0 c0 1.76 1.02 3.16 2.66 3.16 c1.24 0 1.94 -0.72 2.42 -1.3 l0.76 0.78 c-0.5 0.66 -1.48 1.68 -3.48 1.68 c-2.56 0 -4.64 -1.94 -4.64 -4.7 c0 -2.92 2.14 -4.62 4.38 -4.62 c2.16 0 4.14 1.62 4.14 3.74 z M37.239999999999995 14.76 c0 -1.8 -0.64 -2.96 -2.02 -2.96 c-1.36 0 -2.1 1.16 -2.1 2.96 l4.12 0 z M43.46 18.64 c0 0.46 0.3 0.56 0.64 0.56 l0 0.8 l-3.46 0 l0 -0.8 c0.38 0 0.72 -0.1 0.72 -0.56 l0 -9.9 c0 -0.46 -0.14 -0.66 -0.54 -0.66 l-0.56 0 l0 -0.82 l2.72 -0.4 c0.32 -0.04 0.48 0.08 0.48 0.38 l0 11.4 z M47.339999999999996 9.18 c-0.72 0 -1.3 -0.58 -1.3 -1.28 s0.58 -1.28 1.3 -1.28 c0.7 0 1.28 0.58 1.28 1.28 s-0.58 1.28 -1.28 1.28 z M48.54 18.62 c0 0.46 0.34 0.56 0.86 0.56 l0 0.82 l-3.82 0 l0 -0.82 c0.54 0 0.88 -0.1 0.88 -0.56 l0 -5.92 c0 -0.46 -0.16 -0.62 -0.56 -0.62 l-0.4 0 l0 -0.92 l2.4 -0.34 c0.46 -0.06 0.64 0.3 0.64 0.74 l0 7.06 z"/></g><g id="SvgjsG7794" featureKey="sWXNXQ-0" transform="matrix(0.3900683871895531,0,0,0.3900683871895531,109.29787715415759,85.86242578875859)" fill="#000"><path d="M3.78 5.84 l5.16 11.88 l5.16 -11.88 l1.88 0 l0 14.16 l-1.32 0 l0 -12.48 l-0.04 0 l-5.4 12.48 l-0.58 0 l-5.48 -12.48 l-0.04 0 l0 12.48 l-1.32 0 l0 -14.16 l1.98 0 z M42.254000000000005 15.04 l6.5 0 l-3.2 -7.76 z M46.294000000000004 5.84 l5.96 14.16 l-1.48 0 l-1.54 -3.76 l-7.5 0 l-1.6 3.76 l-1.38 0 l6.18 -14.16 l1.36 0 z M76.48800000000001 5.84 l0 6.24 l0.12 0 l6.86 -6.24 l1.82 0 l-7.16 6.48 l7.56 7.68 l-1.9 0 l-7.18 -7.32 l-0.12 0 l0 7.32 l-1.32 0 l0 -14.16 l1.32 0 z M116.922 5.84 l0 1.2 l-7.34 0 l0 5.04 l6.88 0 l0 1.2 l-6.88 0 l0 5.52 l7.66 0 l0 1.2 l-8.98 0 l0 -14.16 l8.66 0 z M166.59000000000003 5.84 l4.28 6.72 l4.38 -6.72 l1.48 0 l-5.2 8.06 l0 6.1 l-1.32 0 l0 -6.1 l-5.2 -8.06 l1.58 0 z M199.82400000000004 12.92 q0 2.7 1.66 4.45 t4.34 1.79 q2.7 0 4.34 -1.77 t1.66 -4.47 q0 -2.74 -1.64 -4.47 t-4.38 -1.77 q-2.68 0 -4.32 1.76 t-1.66 4.48 z M205.82400000000004 5.48 q2.16 0 3.82 0.95 t2.57 2.66 t0.93 3.83 q0 3.26 -2.06 5.33 t-5.26 2.11 q-3.22 0 -5.24 -2.09 t-2.08 -5.35 q0.02 -3.26 2.04 -5.32 t5.28 -2.12 z M238.03800000000004 5.84 l0 8.5 q0 2.3 0.95 3.54 t2.89 1.28 q3.8 0 3.84 -5.02 l0 -8.3 l1.32 0 l0 8.64 q0 2.78 -1.3 4.32 t-3.86 1.56 q-2.52 0 -3.83 -1.53 t-1.33 -4.25 l0 -8.74 l1.32 0 z M275.75200000000007 12.08 q1.54 0 2.38 -0.69 t0.84 -1.83 t-0.82 -1.82 t-2.44 -0.7 l-2.86 0 l0 5.04 l2.9 0 z M275.35200000000003 5.84 q4.9 0 4.94 3.72 q0 3.14 -3.62 3.64 l4.12 6.8 l-1.5 0 l-3.98 -6.72 l-2.46 0 l0 6.72 l-1.32 0 l0 -14.16 l3.82 0 z M336.74 5.48 q3.14 0 4.88 2.22 l-1.08 0.9 q-0.6 -0.9 -1.6 -1.41 t-2.2 -0.51 q-2.64 0 -4.3 1.74 t-1.7 4.5 q0 2.74 1.67 4.47 t4.33 1.77 q1.14 0 2.32 -0.57 t1.86 -1.63 l1.08 0.82 q-1.88 2.58 -5.26 2.58 q-3.28 -0.02 -5.27 -2.12 t-2.05 -5.32 q0 -3.26 2.05 -5.33 t5.27 -2.11 z M366.61400000000003 5.84 l0 12.96 l6.6 0 l0 1.2 l-7.92 0 l0 -14.16 l1.32 0 z M396.56800000000004 12.92 q0 2.7 1.66 4.45 t4.34 1.79 q2.7 0 4.34 -1.77 t1.66 -4.47 q0 -2.74 -1.64 -4.47 t-4.38 -1.77 q-2.68 0 -4.32 1.76 t-1.66 4.48 z M402.56800000000004 5.48 q2.16 0 3.82 0.95 t2.57 2.66 t0.93 3.83 q0 3.26 -2.06 5.33 t-5.26 2.11 q-3.22 0 -5.24 -2.09 t-2.08 -5.35 q0.02 -3.26 2.04 -5.32 t5.28 -2.12 z M434.78200000000004 5.84 l0 8.5 q0 2.3 0.95 3.54 t2.89 1.28 q3.8 0 3.84 -5.02 l0 -8.3 l1.32 0 l0 8.64 q0 2.78 -1.3 4.32 t-3.86 1.56 q-2.52 0 -3.83 -1.53 t-1.33 -4.25 l0 -8.74 l1.32 0 z M472.236 18.8 q3.04 0 4.8 -1.54 t1.78 -4.24 q0 -2.88 -1.75 -4.42 t-4.89 -1.56 l-2.76 0 l0 11.76 l2.82 0 z M472.516 5.84 q3.56 0 5.57 1.92 t2.05 5.26 q0 1.96 -0.89 3.55 t-2.56 2.51 t-4.09 0.92 l-4.5 0 l0 -14.16 l4.42 0 z M534.0840000000001 5.48 q2.46 0 3.86 1.78 l-1.14 0.82 q-1.04 -1.4 -2.76 -1.4 q-1.4 0 -2.27 0.72 t-0.91 1.96 q0 1.08 0.66 1.75 t2.3 1.13 q2.16 0.64 2.88 1.13 t1.09 1.21 t0.37 1.8 q0 1.72 -1.23 2.83 t-3.17 1.15 q-3.06 0 -4.6 -2.14 l1.26 -0.84 q1.06 1.76 3.24 1.78 q1.42 0 2.3 -0.79 t0.88 -1.99 q0 -0.7 -0.25 -1.15 t-0.76 -0.78 t-1.3 -0.6 t-1.85 -0.63 q-1.6 -0.52 -2.37 -1.46 t-0.77 -2.4 q0 -1.72 1.29 -2.8 t3.25 -1.08 z M563.6980000000001 15.04 l6.5 0 l-3.2 -7.76 z M567.738 5.84 l5.96 14.16 l-1.48 0 l-1.54 -3.76 l-7.5 0 l-1.6 3.76 l-1.38 0 l6.18 -14.16 l1.36 0 z M605.092 5.84 l0 1.2 l-7.16 0 l0 5.04 l6.66 0 l0 1.2 l-6.66 0 l0 6.72 l-1.32 0 l0 -14.16 l8.48 0 z M637.2660000000001 5.84 l0 1.2 l-7.34 0 l0 5.04 l6.88 0 l0 1.2 l-6.88 0 l0 5.52 l7.66 0 l0 1.2 l-8.98 0 l0 -14.16 l8.66 0 z"/></g>
			</g>
		</svg>
	